<?xml version="1.0" encoding="UTF-8" standalone="no" ?>
<!DOCTYPE svg PUBLIC "-//W3C//DTD SVG 1.1//EN" "http://www.w3.org/Graphics/SVG/1.1/DTD/svg11.dtd">
<svg xmlns="http://www.w3.org/2000/svg" xmlns:xlink="http://www.w3.org/1999/xlink" version="1.1" width="1280" height="1024" viewBox="0 0 1280 1024" xml:space="preserve">
<desc>Created with Fabric.js 5.3.0</desc>
<defs>
</defs>
<g transform="matrix(1 0 0 1 640 512)" id="background-logo"  >
<rect style="stroke: none; stroke-width: 0; stroke-dasharray: none; stroke-linecap: butt; stroke-dashoffset: 0; stroke-linejoin: miter; stroke-miterlimit: 4; fill: rgb(255,255,255); fill-opacity: 0; fill-rule: nonzero; opacity: 1;"  paint-order="stroke"  x="-640" y="-512" rx="0" ry="0" width="1280" height="1024" />
</g>
<g transform="matrix(1.4079517998409081 0 0 1.4079517998409081 211.054375 514.3756640114428)" id="logo-logo"  >
<g style=""  paint-order="stroke"   >
		<g transform="matrix(-0.6685897821391621 0 0 -0.6685897821391621 1.2532741373549356 0)"  >
<g style=""  paint-order="stroke"   >
		<g transform="matrix(1 0 0 1 1.2950000000000017 0.8699999999999903)"  >
<polygon style="stroke: none; stroke-width: 1; stroke-dasharray: none; stroke-linecap: butt; stroke-dashoffset: 0; stroke-linejoin: miter; stroke-miterlimit: 4; fill: rgb(255,73,57); fill-rule: nonzero; opacity: 1;"  paint-order="stroke"  points="86.645,-97.77 77.21499999999999,-88.91999999999999 77.22500000000001,-81.52999999999999 -71.845,75.24000000000002 -71.885,75.16000000000001 -76.36500000000001,77.38000000000001 -82.805,78.46000000000002 -95.145,97.77 -74.545,85.88000000000001 -73.515,80.02 -72.435,78.07000000000001 78.80499999999999,-80.99 86.02499999999999,-80.74999999999999 95.145,-89.28999999999999 86.50500000000001,-89.72999999999999 86.645,-97.77 " />
</g>
		<g transform="matrix(1 0 0 1 94.525 -94.8)"  >
<polygon style="stroke: none; stroke-width: 1; stroke-dasharray: none; stroke-linecap: butt; stroke-dashoffset: 0; stroke-linejoin: miter; stroke-miterlimit: 4; fill: rgb(255,73,57); fill-rule: nonzero; opacity: 1;"  paint-order="stroke"  points="-0.08500000000000796,5.2 5.474999999999994,-0.009999999999999787 0.2150000000000034,-0.29000000000000004 0.2949999999999875,-5.2 -5.474999999999994,0.20999999999999996 -5.465000000000003,5.0200000000000005 -0.08500000000000796,5.2 " />
</g>
		<g transform="matrix(1 0 0 1 -94.525 -93.45)"  >
<polygon style="stroke: none; stroke-width: 1; stroke-dasharray: none; stroke-linecap: butt; stroke-dashoffset: 0; stroke-linejoin: miter; stroke-miterlimit: 4; fill: rgb(255,73,57); fill-rule: nonzero; opacity: 1;"  paint-order="stroke"  points="0.08499999999999996,5.199999999999999 5.455,5.02 5.475,0.21999999999999886 -0.29499999999999993,-5.200000000000001 -0.20500000000000007,-0.28000000000000114 -5.475,-0.010000000000000675 0.08499999999999996,5.199999999999999 " />
</g>
		<g transform="matrix(1 0 0 1 -1.2849999999999966 2.2250000000000085)"  >
<polygon style="stroke: none; stroke-width: 1; stroke-dasharray: none; stroke-linecap: butt; stroke-dashoffset: 0; stroke-linejoin: miter; stroke-miterlimit: 4; fill: rgb(255,73,57); fill-rule: nonzero; opacity: 1;"  paint-order="stroke"  points="82.79499999999999,78.46499999999999 76.35499999999999,77.385 72.435,75.43499999999999 -77.22500000000001,-81.965 -77.215,-88.92500000000001 -86.655,-97.775 -86.515,-89.73500000000001 -95.14500000000001,-89.29500000000002 -86.025,-80.75500000000001 -78.415,-81.00500000000001 71.85499999999999,77.02499999999999 73.505,80.015 74.535,85.865 95.14500000000001,97.77499999999999 82.79499999999999,78.46499999999999 " />
</g>
</g>
</g>
		<g transform="matrix(0.19142670802433942 0 0 0.19142670802433948 1.2010581815784462 45.37053227204382)"  >
<g style=""  paint-order="stroke"   >
		<g transform="matrix(1 0 0 1 0 0)"  >
<path style="stroke: none; stroke-width: 1; stroke-dasharray: none; stroke-linecap: butt; stroke-dashoffset: 0; stroke-linejoin: miter; stroke-miterlimit: 4; fill: rgb(233,75,60); fill-rule: nonzero; opacity: 1;"  paint-order="stroke"  transform=" translate(-100, -86.5)" d="M 100 0.5 L 0 172.5 L 200 172.5 L 100 0.5 z M 100 20.4 L 182.8 162.8 L 17.2 162.8 L 100 20.4 z" stroke-linecap="round" />
</g>
</g>
</g>
		<g transform="matrix(0.19857452782272703 0 0 0.19857452782272703 -51.09668074082674 1.2044486244026587)"  >
<g style=""  paint-order="stroke"   >
		<g transform="matrix(1 0 0 1 0 0)"  >
<path style="stroke: none; stroke-width: 1; stroke-dasharray: none; stroke-linecap: butt; stroke-dashoffset: 0; stroke-linejoin: miter; stroke-miterlimit: 4; fill: rgb(255,73,57); fill-rule: nonzero; opacity: 1;"  paint-order="stroke"  transform=" translate(-100, -79)" d="M 99.63 158 L 0 49.84 L 46.89 0 L 153.09 0 L 200 49.85 Z M 12.53 49.91 L 99.65 144.49 L 187.44 49.9 L 149.1 9.14 L 50.88 9.14 Z" stroke-linecap="round" />
</g>
</g>
</g>
		<g transform="matrix(0.20914277344345894 0 0 0.20914277344345897 50.03985617875355 -1.8593391373166526)"  >
<g style=""  paint-order="stroke"   >
		<g transform="matrix(1 0 0 1 0 0)"  >
<path style="stroke: none; stroke-width: 1; stroke-dasharray: none; stroke-linecap: butt; stroke-dashoffset: 0; stroke-linejoin: miter; stroke-miterlimit: 4; fill: rgb(255,73,57); fill-rule: nonzero; opacity: 1;"  paint-order="stroke"  transform=" translate(-100, -100)" d="M 100 200 L 0 100 L 100 0 L 200 100 Z M 13.21 100 L 100 186.79 L 186.79 100 L 100 13.21 Z" stroke-linecap="round" />
</g>
</g>
</g>
</g>
</g>
<g transform="matrix(1.9211538461538462 0 0 1.9211538461538462 769.1418826923077 512.9447424271302)" id="text-logo"  >
<g style=""  paint-order="stroke"   >
		<g transform="matrix(1 0 0 1 0 0)" id="text-logo-path-0"  >
<path style="stroke: rgb(255,145,77); stroke-width: 0; stroke-dasharray: none; stroke-linecap: butt; stroke-dashoffset: 0; stroke-linejoin: miter; stroke-miterlimit: 4; fill: rgb(255,73,57); fill-rule: nonzero; opacity: 1;"  paint-order="stroke"  transform=" translate(-204.69, 8.237374298747062)" d="M 1.43 -3.13 C 3.08 -1.19 5.37 0.14 7.99 0.14 C 11.53 0.14 14.12 -2.32 14.12 -4.78 C 14.12 -8.18 10.96 -9.8 8.26 -10.83 C 5.78 -11.77 4.05 -12.64 4.05 -14.12 C 4.05 -15.36 5.45 -16.88 7.91 -16.88 C 9.86 -16.88 11.12 -16.04 11.96 -14.9 C 12.15 -14.61 12.47 -14.45 12.82 -14.45 C 13.39 -14.45 13.9 -14.93 13.9 -15.53 C 13.9 -15.74 13.82 -15.98 13.69 -16.17 C 12.53 -17.74 10.69 -19.04 7.91 -19.04 C 4.18 -19.04 1.89 -16.52 1.89 -14.12 C 1.89 -11.12 4.83 -9.83 7.51 -8.83 C 9.96 -7.88 11.96 -6.78 11.96 -4.78 C 11.96 -3.56 10.34 -2.02 7.99 -2.02 C 6.08 -2.02 4.37 -2.97 3.08 -4.51 C 2.89 -4.75 2.59 -4.89 2.27 -4.89 C 1.7 -4.89 1.19 -4.4 1.19 -3.81 C 1.19 -3.56 1.3 -3.29 1.43 -3.13 Z M 34.24 -0.97 L 34.24 -17.93 C 34.24 -18.52 33.75 -19.01 33.16 -19.01 C 32.56 -19.01 32.08 -18.52 32.08 -17.93 L 32.08 -0.97 C 32.08 -0.38 32.56 0.11 33.16 0.11 C 33.75 0.11 34.24 -0.38 34.24 -0.97 Z M 58.1 -2.16 L 55.57 -2.16 C 54.89 -2.16 54.35 -2.7 54.35 -3.38 L 54.35 -15.53 C 54.35 -16.2 54.89 -16.74 55.57 -16.74 L 58.1 -16.74 C 62.23 -16.74 65.39 -13.58 65.39 -9.48 C 65.39 -5.32 62.23 -2.16 58.1 -2.16 Z M 53.68 0 L 58.1 0 C 63.29 0 67.55 -4.27 67.55 -9.48 C 67.55 -14.63 63.29 -18.9 58.1 -18.9 L 53.68 -18.9 C 52.87 -18.9 52.19 -18.23 52.19 -17.41 L 52.19 -1.48 C 52.19 -0.68 52.87 0 53.68 0 Z M 96.69 -2.16 L 88.88 -2.16 C 88.21 -2.16 87.67 -2.7 87.67 -3.38 L 87.67 -7.16 C 87.67 -7.83 88.21 -8.37 88.88 -8.37 L 94.8 -8.37 C 95.39 -8.37 95.88 -8.86 95.88 -9.45 C 95.88 -10.04 95.39 -10.53 94.8 -10.53 L 88.88 -10.53 C 88.21 -10.53 87.67 -11.07 87.67 -11.74 L 87.67 -15.53 C 87.67 -16.2 88.21 -16.74 88.88 -16.74 L 96.69 -16.74 C 97.28 -16.74 97.77 -17.23 97.77 -17.82 C 97.77 -18.41 97.28 -18.9 96.69 -18.9 L 86.99 -18.9 C 86.18 -18.9 85.51 -18.23 85.51 -17.41 L 85.51 -1.48 C 85.51 -0.68 86.18 0 86.99 0 L 96.69 0 C 97.28 0 97.77 -0.49 97.77 -1.08 C 97.77 -1.67 97.28 -2.16 96.69 -2.16 Z M 124.25 0.14 C 124.69 0.14 125.09 0.11 125.52 0.05 C 126.17 -0.08 127.06 0.22 127.49 0.73 C 128.57 1.78 130 2.4 131.68 2.56 C 132.27 2.62 132.87 2.16 132.87 1.48 C 132.87 0.94 132.41 0.46 131.9 0.43 C 131.03 0.35 130.28 0.14 129.65 -0.22 C 129.14 -0.65 129.17 -1.24 129.74 -1.62 C 132.22 -3.35 133.84 -6.24 133.84 -9.48 C 133.84 -14.71 129.52 -19.04 124.25 -19.04 C 118.96 -19.04 114.64 -14.71 114.64 -9.48 C 114.64 -4.18 118.96 0.14 124.25 0.14 Z M 124.25 -2.02 C 120.02 -2.02 116.8 -5.24 116.8 -9.48 C 116.8 -13.66 120.02 -16.88 124.25 -16.88 C 128.47 -16.88 131.68 -13.66 131.68 -9.48 C 131.68 -6.99 130.55 -4.83 128.76 -3.51 C 128.2 -3.16 127.63 -3.4 127.52 -4.05 C 127.52 -4.18 127.49 -4.29 127.49 -4.43 C 127.47 -4.97 126.98 -5.43 126.41 -5.43 C 125.79 -5.43 125.31 -4.89 125.36 -4.27 C 125.39 -3.97 125.42 -3.65 125.47 -3.35 C 125.63 -2.7 125.2 -2.11 124.52 -2.02 C 124.44 -2.02 124.34 -2.02 124.25 -2.02 Z M 164.48 -17.93 L 164.48 -7.29 C 164.48 -4.4 162.11 -2.02 159.22 -2.02 C 156.33 -2.02 153.95 -4.4 153.95 -7.29 L 153.95 -17.93 C 153.95 -18.52 153.47 -19.01 152.87 -19.01 C 152.28 -19.01 151.79 -18.52 151.79 -17.93 L 151.79 -7.29 C 151.79 -3.21 155.14 0.14 159.22 0.14 C 163.3 0.14 166.64 -3.21 166.64 -7.29 L 166.64 -17.93 C 166.64 -18.52 166.16 -19.01 165.56 -19.01 C 164.97 -19.01 164.48 -18.52 164.48 -17.93 Z M 195.78 -2.16 L 187.97 -2.16 C 187.3 -2.16 186.76 -2.7 186.76 -3.38 L 186.76 -7.16 C 186.76 -7.83 187.3 -8.37 187.97 -8.37 L 193.89 -8.37 C 194.48 -8.37 194.97 -8.86 194.97 -9.45 C 194.97 -10.04 194.48 -10.53 193.89 -10.53 L 187.97 -10.53 C 187.3 -10.53 186.76 -11.07 186.76 -11.74 L 186.76 -15.53 C 186.76 -16.2 187.3 -16.74 187.97 -16.74 L 195.78 -16.74 C 196.37 -16.74 196.86 -17.23 196.86 -17.82 C 196.86 -18.41 196.37 -18.9 195.78 -18.9 L 186.08 -18.9 C 185.27 -18.9 184.6 -18.23 184.6 -17.41 L 184.6 -1.48 C 184.6 -0.68 185.27 0 186.08 0 L 195.78 0 C 196.37 0 196.86 -0.49 196.86 -1.08 C 196.86 -1.67 196.37 -2.16 195.78 -2.16 Z M 215.06 -3.13 C 216.7 -1.19 219 0.14 221.62 0.14 C 225.15 0.14 227.75 -2.32 227.75 -4.78 C 227.75 -8.18 224.59 -9.8 221.89 -10.83 C 219.4 -11.77 217.67 -12.64 217.67 -14.12 C 217.67 -15.36 219.08 -16.88 221.54 -16.88 C 223.48 -16.88 224.75 -16.04 225.59 -14.9 C 225.77 -14.61 226.1 -14.45 226.45 -14.45 C 227.02 -14.45 227.53 -14.93 227.53 -15.53 C 227.53 -15.74 227.45 -15.98 227.31 -16.17 C 226.15 -17.74 224.32 -19.04 221.54 -19.04 C 217.81 -19.04 215.51 -16.52 215.51 -14.12 C 215.51 -11.12 218.46 -9.83 221.13 -8.83 C 223.59 -7.88 225.59 -6.78 225.59 -4.78 C 225.59 -3.56 223.97 -2.02 221.62 -2.02 C 219.7 -2.02 218 -2.97 216.7 -4.51 C 216.51 -4.75 216.22 -4.89 215.89 -4.89 C 215.33 -4.89 214.81 -4.4 214.81 -3.81 C 214.81 -3.56 214.92 -3.29 215.06 -3.13 Z M 253.77 -0.97 L 253.77 -15.53 C 253.77 -16.2 254.31 -16.74 254.99 -16.74 L 258.61 -16.74 C 259.2 -16.74 259.69 -17.23 259.69 -17.82 C 259.69 -18.41 259.2 -18.9 258.61 -18.9 L 246.78 -18.9 C 246.19 -18.9 245.7 -18.41 245.7 -17.82 C 245.7 -17.23 246.19 -16.74 246.78 -16.74 L 250.4 -16.74 C 251.07 -16.74 251.61 -16.2 251.61 -15.53 L 251.61 -0.97 C 251.61 -0.38 252.1 0.11 252.69 0.11 C 253.29 0.11 253.77 -0.38 253.77 -0.97 Z M 315.33 -1.32 L 308.56 -17.95 C 307.99 -19.39 306.05 -19.39 305.48 -17.95 L 298.7 -1.32 C 298.65 -1.22 298.62 -1.05 298.62 -0.89 C 298.62 -0.32 299.08 0.19 299.7 0.19 C 300.11 0.19 300.51 -0.08 300.67 -0.46 L 301.67 -2.92 C 301.91 -3.54 302.67 -4.05 303.35 -4.05 L 310.69 -4.05 C 311.36 -4.05 312.12 -3.54 312.36 -2.92 L 313.36 -0.46 C 313.52 -0.08 313.9 0.19 314.33 0.19 C 314.93 0.19 315.41 -0.3 315.41 -0.89 C 315.41 -1.03 315.39 -1.19 315.33 -1.32 Z M 303.48 -7.34 L 306.56 -14.88 C 306.8 -15.5 307.23 -15.5 307.48 -14.88 L 310.55 -7.34 C 310.8 -6.72 310.47 -6.21 309.8 -6.21 L 304.24 -6.21 C 303.56 -6.21 303.24 -6.72 303.48 -7.34 Z M 335.53 -0.97 L 335.53 -4.56 C 335.53 -5.24 336.07 -5.78 336.74 -5.78 L 340.07 -5.78 C 343.63 -5.78 346.63 -8.78 346.63 -12.34 C 346.63 -15.9 343.63 -18.9 340.07 -18.9 L 334.85 -18.9 C 334.04 -18.9 333.37 -18.23 333.37 -17.41 L 333.37 -0.97 C 333.37 -0.38 333.86 0.11 334.45 0.11 C 335.04 0.11 335.53 -0.38 335.53 -0.97 Z M 335.53 -9.15 L 335.53 -15.53 C 335.53 -16.2 336.07 -16.74 336.74 -16.74 L 340.07 -16.74 C 342.58 -16.74 344.47 -14.85 344.47 -12.34 C 344.47 -9.83 342.58 -7.94 340.07 -7.94 L 336.74 -7.94 C 336.07 -7.94 335.53 -8.48 335.53 -9.15 Z M 366.74 -0.97 L 366.74 -4.56 C 366.74 -5.24 367.28 -5.78 367.96 -5.78 L 371.28 -5.78 C 374.84 -5.78 377.84 -8.78 377.84 -12.34 C 377.84 -15.9 374.84 -18.9 371.28 -18.9 L 366.07 -18.9 C 365.26 -18.9 364.58 -18.23 364.58 -17.41 L 364.58 -0.97 C 364.58 -0.38 365.07 0.11 365.66 0.11 C 366.26 0.11 366.74 -0.38 366.74 -0.97 Z M 366.74 -9.15 L 366.74 -15.53 C 366.74 -16.2 367.28 -16.74 367.96 -16.74 L 371.28 -16.74 C 373.79 -16.74 375.68 -14.85 375.68 -12.34 C 375.68 -9.83 373.79 -7.94 371.28 -7.94 L 367.96 -7.94 C 367.28 -7.94 366.74 -8.48 366.74 -9.15 Z M 395.5 -3.13 C 397.14 -1.19 399.44 0.14 402.06 0.14 C 405.59 0.14 408.19 -2.32 408.19 -4.78 C 408.19 -8.18 405.03 -9.8 402.33 -10.83 C 399.84 -11.77 398.12 -12.64 398.12 -14.12 C 398.12 -15.36 399.52 -16.88 401.98 -16.88 C 403.92 -16.88 405.19 -16.04 406.03 -14.9 C 406.21 -14.61 406.54 -14.45 406.89 -14.45 C 407.46 -14.45 407.97 -14.93 407.97 -15.53 C 407.97 -15.74 407.89 -15.98 407.75 -16.17 C 406.59 -17.74 404.76 -19.04 401.98 -19.04 C 398.25 -19.04 395.95 -16.52 395.95 -14.12 C 395.95 -11.12 398.9 -9.83 401.57 -8.83 C 404.03 -7.88 406.03 -6.78 406.03 -4.78 C 406.03 -3.56 404.41 -2.02 402.06 -2.02 C 400.14 -2.02 398.44 -2.97 397.14 -4.51 C 396.95 -4.75 396.66 -4.89 396.33 -4.89 C 395.77 -4.89 395.25 -4.4 395.25 -3.81 C 395.25 -3.56 395.36 -3.29 395.5 -3.13 Z" stroke-linecap="round" />
</g>
</g>
</g>
<g transform="matrix(1.9211538461538462 0 0 1.9211538461538462 210.73264693610474 443.384276429707)" id="tagline-a9322b8b-78ea-43fa-81af-d0900a5dccef-logo"  >
<g style=""  paint-order="stroke"   >
		<g transform="matrix(1 0 0 1 0 0)" id="tagline-a9322b8b-78ea-43fa-81af-d0900a5dccef-logo-path-0"  >
<path style="stroke: none; stroke-width: 0; stroke-dasharray: none; stroke-linecap: butt; stroke-dashoffset: 0; stroke-linejoin: miter; stroke-miterlimit: 4; fill: rgb(255,73,57); fill-rule: nonzero; opacity: 1;"  paint-order="stroke"  transform=" translate(-9.227659382311309, 9.924999999999999)" d="M 2.11 -2.8 C 2.72 -2.31 3.38 -1.87 4.05 -1.49 C 4.72 -1.11 5.52 -0.77 6.48 -0.45 C 7.44 -0.14 8.38 0.01 9.32 0.03 C 11.28 0.03 12.96 -0.49 14.37 -1.52 C 15.74 -2.5 16.57 -3.9 16.57 -5.43 C 16.57 -6.96 15.75 -8.27 14.42 -9.13 C 13.25 -9.91 11.58 -10.51 9.43 -10.92 L 9.38 -10.92 C 7.49 -11.29 6.1 -11.79 5.18 -12.4 C 4.24 -13.04 3.75 -13.84 3.72 -14.78 C 3.72 -15.82 4.24 -16.72 5.26 -17.47 C 6.37 -18.25 7.7 -18.65 9.27 -18.65 C 10.29 -18.65 11.25 -18.44 12.22 -17.98 C 12.7 -17.75 13.11 -17.53 13.43 -17.35 C 13.74 -17.16 14.14 -16.9 14.64 -16.57 C 14.92 -16.39 15.33 -16.47 15.49 -16.75 C 15.67 -17.06 15.59 -17.4 15.31 -17.61 C 14.78 -17.95 14.36 -18.22 14.04 -18.42 C 13.71 -18.61 13.28 -18.84 12.73 -19.1 C 11.62 -19.63 10.49 -19.88 9.27 -19.88 C 7.41 -19.88 5.84 -19.4 4.54 -18.46 C 3.27 -17.53 2.49 -16.21 2.49 -14.78 C 2.49 -13.37 3.25 -12.17 4.51 -11.36 C 5.58 -10.65 7.12 -10.1 9.13 -9.72 L 9.19 -9.72 C 11.17 -9.34 12.69 -8.8 13.73 -8.12 C 14.78 -7.4 15.31 -6.51 15.31 -5.43 C 15.31 -4.29 14.75 -3.32 13.63 -2.52 C 12.46 -1.65 11.02 -1.23 9.32 -1.23 L 9.26 -1.23 C 8.12 -1.23 7 -1.48 5.88 -1.97 C 4.74 -2.46 3.75 -3.05 2.88 -3.75 C 2.65 -3.96 2.23 -3.94 2.01 -3.66 C 1.8 -3.43 1.87 -3.02 2.11 -2.8 Z" stroke-linecap="round" />
</g>
</g>
</g>
</svg>